<mxfile host="app.diagrams.net" agent="Mozilla/5.0 (Windows NT 10.0; Win64; x64) AppleWebKit/537.36 (KHTML, like Gecko) Chrome/134.0.0.0 Safari/537.36" version="26.1.1">
  <diagram name="PÃ¡gina-1" id="8hF0czYKqXyYdJmkK9oz">
    <mxGraphModel dx="880" dy="426" grid="1" gridSize="10" guides="1" tooltips="1" connect="1" arrows="1" fold="1" page="1" pageScale="1" pageWidth="827" pageHeight="1169" math="0" shadow="0">
      <root>
        <mxCell id="0" />
        <mxCell id="1" parent="0" />
        <mxCell id="_aYK35PrGA5W1C0V3ydt-20" style="edgeStyle=orthogonalEdgeStyle;rounded=0;orthogonalLoop=1;jettySize=auto;html=1;entryX=0.5;entryY=0;entryDx=0;entryDy=0;" edge="1" parent="1" source="_aYK35PrGA5W1C0V3ydt-1" target="_aYK35PrGA5W1C0V3ydt-9">
          <mxGeometry relative="1" as="geometry">
            <Array as="points">
              <mxPoint x="455" y="260" />
              <mxPoint x="200" y="260" />
            </Array>
          </mxGeometry>
        </mxCell>
        <mxCell id="_aYK35PrGA5W1C0V3ydt-23" style="edgeStyle=orthogonalEdgeStyle;rounded=0;orthogonalLoop=1;jettySize=auto;html=1;" edge="1" parent="1" source="_aYK35PrGA5W1C0V3ydt-1" target="_aYK35PrGA5W1C0V3ydt-7">
          <mxGeometry relative="1" as="geometry">
            <Array as="points">
              <mxPoint x="455" y="260" />
              <mxPoint x="710" y="260" />
            </Array>
          </mxGeometry>
        </mxCell>
        <mxCell id="_aYK35PrGA5W1C0V3ydt-28" style="edgeStyle=orthogonalEdgeStyle;rounded=0;orthogonalLoop=1;jettySize=auto;html=1;entryX=0.5;entryY=0;entryDx=0;entryDy=0;" edge="1" parent="1" source="_aYK35PrGA5W1C0V3ydt-1" target="_aYK35PrGA5W1C0V3ydt-5">
          <mxGeometry relative="1" as="geometry">
            <Array as="points">
              <mxPoint x="455" y="260" />
              <mxPoint x="370" y="260" />
            </Array>
          </mxGeometry>
        </mxCell>
        <mxCell id="_aYK35PrGA5W1C0V3ydt-29" style="edgeStyle=orthogonalEdgeStyle;rounded=0;orthogonalLoop=1;jettySize=auto;html=1;entryX=0.5;entryY=0;entryDx=0;entryDy=0;" edge="1" parent="1" source="_aYK35PrGA5W1C0V3ydt-1" target="_aYK35PrGA5W1C0V3ydt-6">
          <mxGeometry relative="1" as="geometry">
            <Array as="points">
              <mxPoint x="455" y="260" />
              <mxPoint x="540" y="260" />
            </Array>
          </mxGeometry>
        </mxCell>
        <mxCell id="_aYK35PrGA5W1C0V3ydt-1" value="&lt;font style=&quot;vertical-align: inherit;&quot;&gt;&lt;font style=&quot;vertical-align: inherit;&quot;&gt;ronaldo_sa.com.br&lt;/font&gt;&lt;/font&gt;" style="rounded=0;whiteSpace=wrap;html=1;fillColor=#dae8fc;strokeColor=#6c8ebf;" vertex="1" parent="1">
          <mxGeometry x="380" y="140" width="150" height="60" as="geometry" />
        </mxCell>
        <mxCell id="_aYK35PrGA5W1C0V3ydt-25" style="edgeStyle=orthogonalEdgeStyle;rounded=0;orthogonalLoop=1;jettySize=auto;html=1;entryX=0.5;entryY=0;entryDx=0;entryDy=0;" edge="1" parent="1" source="_aYK35PrGA5W1C0V3ydt-5" target="_aYK35PrGA5W1C0V3ydt-11">
          <mxGeometry relative="1" as="geometry" />
        </mxCell>
        <mxCell id="_aYK35PrGA5W1C0V3ydt-5" value="devops" style="rounded=0;whiteSpace=wrap;html=1;fillColor=#fad9d5;strokeColor=#ae4132;" vertex="1" parent="1">
          <mxGeometry x="310" y="310" width="120" height="60" as="geometry" />
        </mxCell>
        <mxCell id="_aYK35PrGA5W1C0V3ydt-26" style="edgeStyle=orthogonalEdgeStyle;rounded=0;orthogonalLoop=1;jettySize=auto;html=1;entryX=0.5;entryY=0;entryDx=0;entryDy=0;" edge="1" parent="1" source="_aYK35PrGA5W1C0V3ydt-6" target="_aYK35PrGA5W1C0V3ydt-12">
          <mxGeometry relative="1" as="geometry" />
        </mxCell>
        <mxCell id="_aYK35PrGA5W1C0V3ydt-6" value="sre" style="rounded=0;whiteSpace=wrap;html=1;fillColor=#fad9d5;strokeColor=#ae4132;" vertex="1" parent="1">
          <mxGeometry x="480" y="310" width="120" height="60" as="geometry" />
        </mxCell>
        <mxCell id="_aYK35PrGA5W1C0V3ydt-27" style="edgeStyle=orthogonalEdgeStyle;rounded=0;orthogonalLoop=1;jettySize=auto;html=1;entryX=0.5;entryY=0;entryDx=0;entryDy=0;" edge="1" parent="1" source="_aYK35PrGA5W1C0V3ydt-7" target="_aYK35PrGA5W1C0V3ydt-13">
          <mxGeometry relative="1" as="geometry" />
        </mxCell>
        <mxCell id="_aYK35PrGA5W1C0V3ydt-7" value="financeiro" style="rounded=0;whiteSpace=wrap;html=1;fillColor=#fad9d5;strokeColor=#ae4132;" vertex="1" parent="1">
          <mxGeometry x="650" y="310" width="120" height="60" as="geometry" />
        </mxCell>
        <mxCell id="_aYK35PrGA5W1C0V3ydt-24" style="edgeStyle=orthogonalEdgeStyle;rounded=0;orthogonalLoop=1;jettySize=auto;html=1;entryX=0.5;entryY=0;entryDx=0;entryDy=0;" edge="1" parent="1" source="_aYK35PrGA5W1C0V3ydt-9" target="_aYK35PrGA5W1C0V3ydt-10">
          <mxGeometry relative="1" as="geometry" />
        </mxCell>
        <mxCell id="_aYK35PrGA5W1C0V3ydt-9" value="marketing" style="rounded=0;whiteSpace=wrap;html=1;fillColor=#fad9d5;strokeColor=#ae4132;" vertex="1" parent="1">
          <mxGeometry x="140" y="310" width="120" height="60" as="geometry" />
        </mxCell>
        <mxCell id="_aYK35PrGA5W1C0V3ydt-10" value="" style="shape=actor;whiteSpace=wrap;html=1;fillColor=#647687;fontColor=#ffffff;strokeColor=#314354;" vertex="1" parent="1">
          <mxGeometry x="180" y="440" width="40" height="60" as="geometry" />
        </mxCell>
        <mxCell id="_aYK35PrGA5W1C0V3ydt-11" value="" style="shape=actor;whiteSpace=wrap;html=1;fillColor=#647687;fontColor=#ffffff;strokeColor=#314354;" vertex="1" parent="1">
          <mxGeometry x="350" y="440" width="40" height="60" as="geometry" />
        </mxCell>
        <mxCell id="_aYK35PrGA5W1C0V3ydt-12" value="" style="shape=actor;whiteSpace=wrap;html=1;fillColor=#647687;fontColor=#ffffff;strokeColor=#314354;" vertex="1" parent="1">
          <mxGeometry x="520" y="440" width="40" height="60" as="geometry" />
        </mxCell>
        <mxCell id="_aYK35PrGA5W1C0V3ydt-13" value="" style="shape=actor;whiteSpace=wrap;html=1;fillColor=#647687;fontColor=#ffffff;strokeColor=#314354;" vertex="1" parent="1">
          <mxGeometry x="690" y="440" width="40" height="60" as="geometry" />
        </mxCell>
        <mxCell id="_aYK35PrGA5W1C0V3ydt-16" value="" style="image;aspect=fixed;html=1;points=[];align=center;fontSize=12;image=img/lib/azure2/identity/Groups.svg;" vertex="1" parent="1">
          <mxGeometry x="130" y="290" width="36.43" height="30" as="geometry" />
        </mxCell>
        <mxCell id="_aYK35PrGA5W1C0V3ydt-17" value="" style="image;aspect=fixed;html=1;points=[];align=center;fontSize=12;image=img/lib/azure2/identity/Groups.svg;" vertex="1" parent="1">
          <mxGeometry x="300" y="290" width="36.43" height="30" as="geometry" />
        </mxCell>
        <mxCell id="_aYK35PrGA5W1C0V3ydt-18" value="" style="image;aspect=fixed;html=1;points=[];align=center;fontSize=12;image=img/lib/azure2/identity/Groups.svg;" vertex="1" parent="1">
          <mxGeometry x="470" y="290" width="36.43" height="30" as="geometry" />
        </mxCell>
        <mxCell id="_aYK35PrGA5W1C0V3ydt-19" value="" style="image;aspect=fixed;html=1;points=[];align=center;fontSize=12;image=img/lib/azure2/identity/Groups.svg;" vertex="1" parent="1">
          <mxGeometry x="640" y="290" width="36.43" height="30" as="geometry" />
        </mxCell>
      </root>
    </mxGraphModel>
  </diagram>
</mxfile>
